<svg width="602" height="602" viewBox="0 0 602 602" fill="none" xmlns="http://www.w3.org/2000/svg">
<g clip-path="url(#clip0)">
<path d="M463.654 371.42C458.077 370.92 453.155 375.03 452.656 380.615C452.155 386.189 456.272 391.121 461.853 391.621C467.43 392.121 472.362 387.997 472.863 382.424C473.358 376.84 469.239 371.919 463.654 371.42Z" fill="#05386B" fill-opacity="0.21"/>
<path d="M179.727 440.828C184.813 438.468 187.013 432.434 184.655 427.359C182.294 422.273 176.272 420.071 171.197 422.43C166.11 424.786 163.898 430.815 166.258 435.901C168.612 440.976 174.652 443.187 179.727 440.828Z" fill="#05386B" fill-opacity="0.21"/>
<path d="M559.778 341.739C562.986 315.642 562.605 291.696 558.611 268.8C547.026 202.374 508.995 144.337 451.519 105.375C395.504 67.4031 326.573 51.912 259.297 63.6462C121.478 87.684 22.9943 219.77 47.1064 358.014C51.1006 380.915 58.8491 403.58 70.7077 427.057C62.8196 435.874 60.5124 448.907 65.7281 460.188L108.423 552.166C115.448 567.338 133.476 574.079 148.826 566.97L178.006 553.425C186.799 562.396 200.595 565.298 212.557 559.759L249.354 542.675C264.568 535.614 271.203 517.488 264.143 502.278L204.383 373.491C197.317 358.274 179.184 351.641 163.974 358.704L127.187 375.775C123.311 377.573 119.995 380.092 117.319 383.094C113.704 374.141 110.853 365.132 108.785 356.111C119.265 350.689 125.858 339.566 124.934 327.322C118.44 241.398 184.969 158.966 273.237 143.571C361.504 128.175 452.011 183.218 474.989 266.267C478.26 278.101 488.233 286.335 499.93 287.889C501.038 297.078 501.405 306.52 501.035 316.168C497.497 314.249 493.528 313.002 489.272 312.621L448.877 309.013C432.164 307.521 417.354 319.896 415.861 336.606L403.228 478.02C401.734 494.726 414.113 509.531 430.819 511.025L471.235 514.641C484.313 515.801 496.336 508.448 501.594 496.986L533.645 499.856C550.552 501.35 565.175 488.822 566.64 472.254L575.676 371.233C576.768 358.847 570.163 347.353 559.778 341.739ZM135.72 394.173L172.511 377.098C177.586 374.74 183.627 376.954 185.985 382.025L245.741 510.813C248.095 515.884 245.883 521.921 240.813 524.278L231.612 528.547L201.737 464.149C199.382 459.07 193.354 456.861 188.271 459.217C183.189 461.576 180.98 467.604 183.34 472.686L213.219 537.088L204.022 541.357C198.954 543.706 192.909 541.492 190.552 536.421C190.551 536.417 190.551 536.413 190.551 536.413L130.784 407.635C128.431 402.568 130.645 396.527 135.72 394.173ZM167.885 535.758L140.296 548.567C135.22 550.918 129.189 548.738 126.821 543.633L84.1308 451.658C81.907 446.845 83.7755 441.082 88.463 438.49C88.6791 438.367 88.909 438.255 89.0656 438.183L116.268 425.554C120.451 432.319 112.223 416.576 167.885 535.758ZM69.0931 364.471L89.0918 360.983C92.7396 376.752 98.5061 392.437 106.308 407.815L88.0046 416.316C79.2156 398.647 72.9802 381.542 69.0931 364.471ZM494.535 260.854C468.208 165.71 367.366 106.562 269.751 123.588C172.082 140.623 97.2719 230.452 104.706 328.85C105.075 333.732 101.43 338.244 96.3993 339.121L65.5889 344.495C50.2207 223.384 138.411 105.318 262.781 83.6253C387.148 61.9338 510.104 143.173 536.639 262.336L505.825 267.711C500.802 268.587 495.842 265.576 494.535 260.854ZM540.105 282.319C542.226 299.698 542.15 317.904 539.865 337.505L519.761 335.706C521.895 318.587 522.012 301.88 520.106 285.807L540.105 282.319ZM484.032 485.23C484.032 485.23 484.032 485.23 484.028 485.23C483.53 490.799 478.591 494.928 473.036 494.436L462.928 493.531L469.242 422.82C469.742 417.239 465.623 412.315 460.042 411.815C454.466 411.319 449.537 415.439 449.041 421.015L442.727 491.725L432.627 490.818C427.059 490.321 422.93 485.386 423.428 479.821L436.062 338.408C436.48 333.742 440.012 330.088 444.426 329.318C445.277 329.169 446.168 329.13 447.071 329.21L487.466 332.819C493.038 333.316 497.171 338.25 496.673 343.815L484.032 485.23ZM555.472 369.436L546.439 470.453C545.943 476.053 540.993 480.144 535.442 479.652L505.136 476.936C517.168 345.899 514.75 363.555 516.394 355.766C548.217 358.619 546.355 358.425 547.019 358.538C552.225 359.377 555.939 364.171 555.472 369.436Z" fill="#05386B" fill-opacity="0.21"/>
</g>
<defs>
<clipPath id="clip0">
<rect width="519.695" height="519.695" fill="white" transform="translate(0 89.295) rotate(-9.89378)"/>
</clipPath>
</defs>
</svg>
