<svg width="234" height="234" viewBox="0 0 234 234" fill="none" xmlns="http://www.w3.org/2000/svg">
<path d="M117 0C52.3826 0 0 52.3826 0 117C0 181.617 52.3826 234 117 234C181.617 234 234 181.617 234 117C234 52.3826 181.617 0 117 0ZM167.92 169.799C166.432 172.344 163.755 173.764 161.005 173.764C159.634 173.764 158.245 173.411 156.975 172.67C135.95 160.383 111.661 158.408 94.9834 158.915C76.5091 159.477 62.9611 163.124 62.8265 163.161C58.5678 164.325 54.1669 161.818 52.9987 157.56C51.831 153.303 54.3283 148.905 58.5848 147.732C59.1955 147.564 73.7744 143.604 94.0477 142.936C105.989 142.542 117.485 143.374 128.212 145.409C141.798 147.986 154.192 152.51 165.049 158.855C168.864 161.084 170.149 165.985 167.92 169.799ZM182.794 138.906C181.032 141.922 177.861 143.602 174.603 143.603C172.979 143.603 171.334 143.186 169.83 142.307C144.926 127.752 116.154 125.414 96.3995 126.014C74.5158 126.68 58.4677 131 58.3085 131.044C53.2652 132.42 48.0512 129.454 46.6674 124.41C45.2841 119.366 48.2427 114.157 53.2843 112.768C54.0077 112.568 71.2765 107.878 95.2909 107.086C109.437 106.62 123.054 107.605 135.76 110.015C151.853 113.069 166.533 118.427 179.394 125.942C183.913 128.583 185.436 134.388 182.794 138.906ZM191.938 110.817C189.946 110.817 187.928 110.305 186.083 109.227C126.875 74.6247 50.0713 95.1957 49.3026 95.408C43.1124 97.1135 36.7132 93.4781 35.0082 87.2885C33.3026 81.0988 36.9381 74.6991 43.1277 72.9941C44.0147 72.7495 65.1969 66.996 94.6529 66.0247C112.005 65.4535 128.707 66.6616 144.292 69.618C164.033 73.3629 182.04 79.9355 197.814 89.1543C203.357 92.3936 205.225 99.5129 201.985 105.056C199.824 108.755 195.934 110.817 191.938 110.817Z" fill="#05386B"/>
</svg>
