<svg width="43" height="43" viewBox="0 0 43 43" fill="none" xmlns="http://www.w3.org/2000/svg">
<path d="M21.5 0C9.62586 0 0 9.62586 0 21.5C0 33.3741 9.62586 43 21.5 43C33.3741 43 43 33.3741 43 21.5C43 9.62586 33.3741 0 21.5 0ZM30.8571 31.2024C30.5837 31.6701 30.0917 31.931 29.5864 31.9311C29.3344 31.9311 29.0792 31.8662 28.8459 31.73C24.9823 29.472 20.5189 29.1091 17.4542 29.2024C14.0594 29.3056 11.5698 29.9758 11.545 29.9826C10.7625 30.1964 9.95375 29.7359 9.73908 28.9534C9.52451 28.171 9.98341 27.3628 10.7656 27.1473C10.8778 27.1165 13.5568 26.3888 17.2823 26.2659C19.4767 26.1935 21.5892 26.3465 23.5604 26.7204C26.057 27.194 28.3344 28.0253 30.3295 29.1913C31.0306 29.6009 31.2667 30.5015 30.8571 31.2024ZM33.5904 25.5255C33.2667 26.0796 32.6839 26.3885 32.0852 26.3886C31.7868 26.3886 31.4844 26.3119 31.2081 26.1504C26.6317 23.4758 21.3446 23.0461 17.7144 23.1564C13.6931 23.2788 10.7441 24.0726 10.7148 24.0807C9.78805 24.3336 8.82992 23.7885 8.57563 22.8616C8.32144 21.9348 8.86511 20.9775 9.79157 20.7223C9.92449 20.6857 13.0978 19.8236 17.5107 19.6782C20.1102 19.5925 22.6125 19.7736 24.9473 20.2165C27.9047 20.7776 30.6023 21.7622 32.9655 23.1433C33.796 23.6285 34.0758 24.6951 33.5904 25.5255ZM35.2707 20.3638C34.9046 20.3638 34.5338 20.2697 34.1948 20.0716C23.3147 13.7131 9.20114 17.4932 9.05987 17.5322C7.92236 17.8456 6.74644 17.1776 6.43313 16.0402C6.11972 14.9028 6.78776 13.7268 7.92518 13.4134C8.08817 13.3685 11.9806 12.3112 17.3935 12.1328C20.5822 12.0278 23.6513 12.2498 26.5153 12.7931C30.1428 13.4812 33.4519 14.689 36.3505 16.3831C37.369 16.9783 37.7122 18.2866 37.117 19.3051C36.7198 19.9848 36.005 20.3638 35.2707 20.3638Z" fill="#EDF5E1"/>
</svg>
