<svg width="49" height="49" viewBox="0 0 49 49" fill="none" xmlns="http://www.w3.org/2000/svg">
<path d="M48.4931 13.9396C48.4931 13.9396 47.9861 10.3068 46.55 8.70172C44.6913 6.58964 42.5793 6.58964 41.65 6.50514C34.8069 5.99829 24.5 5.91379 24.5 5.91379C24.5 5.91379 14.1931 5.99829 7.35 6.50514C6.42072 6.58964 4.30865 6.67415 2.45 8.70172C0.929277 10.3069 0.506939 13.9396 0.506939 13.9396C0.506939 13.9396 0 18.2483 0 22.5569V26.5277C0 30.8363 0.506939 35.0605 0.506939 35.0605C0.506939 35.0605 1.01388 38.6933 2.45 40.2984C4.30865 42.4105 6.75865 42.326 7.85694 42.5795C11.7431 43.0017 24.5 43.0862 24.5 43.0862C24.5 43.0862 34.8069 43.0862 41.65 42.4949C42.5793 42.4104 44.6913 42.3259 46.55 40.2983C47.9862 38.6932 48.4931 35.0604 48.4931 35.0604C48.4931 35.0604 49 30.7517 49 26.5276V22.5568C49 18.2483 48.4931 13.9396 48.4931 13.9396Z" fill="#EDF5E1"/>
<path d="M18.5862 15.9672V34.3L34.6379 25.3449L18.5862 15.9672Z" fill="#05386B"/>
</svg>
