<svg width="251" height="251" viewBox="0 0 251 251" fill="none" xmlns="http://www.w3.org/2000/svg">
<path d="M248.403 71.4051C248.403 71.4051 245.806 52.7963 238.45 44.5741C228.929 33.7551 218.11 33.7551 213.35 33.3222C178.297 30.726 125.5 30.2931 125.5 30.2931C125.5 30.2931 72.7032 30.726 37.65 33.3222C32.8898 33.7551 22.0708 34.188 12.55 44.5741C4.76018 52.7968 2.59677 71.4051 2.59677 71.4051C2.59677 71.4051 0 93.476 0 115.547V135.887C0 157.957 2.59677 179.595 2.59677 179.595C2.59677 179.595 5.19354 198.204 12.55 206.426C22.0708 217.245 34.6208 216.813 40.2468 218.111C60.1532 220.274 125.5 220.707 125.5 220.707C125.5 220.707 178.297 220.707 213.35 217.678C218.11 217.245 228.929 216.812 238.45 206.426C245.807 198.204 248.403 179.595 248.403 179.595C248.403 179.595 251 157.524 251 135.886V115.546C251 93.476 248.403 71.4051 248.403 71.4051Z" fill="#05386B"/>
<path d="M95.207 81.7911V175.7L177.431 129.828L95.207 81.7911Z" fill="#5CDB95"/>
</svg>
